<svg width="97" height="27" viewBox="0 0 97 27" fill="none" xmlns="http://www.w3.org/2000/svg">
<path d="M13.4887 20.8575L5.1975 14.4113L3.375 15.8287L13.5 23.7038L23.625 15.8287L21.7913 14.4L13.4887 20.8575ZM13.5 18L21.78 11.5538L23.625 10.125L13.5 2.25L3.375 10.125L5.20875 11.5538L13.5 18Z" fill="#5E81FF"/>
<path d="M43.746 11.432C43.746 12.164 43.578 12.836 43.242 13.448C42.906 14.048 42.39 14.534 41.694 14.906C40.998 15.278 40.134 15.464 39.102 15.464H37.194V20H34.116V7.364H39.102C40.11 7.364 40.962 7.538 41.658 7.886C42.354 8.234 42.876 8.714 43.224 9.326C43.572 9.938 43.746 10.64 43.746 11.432ZM38.868 13.016C39.456 13.016 39.894 12.878 40.182 12.602C40.47 12.326 40.614 11.936 40.614 11.432C40.614 10.928 40.47 10.538 40.182 10.262C39.894 9.986 39.456 9.848 38.868 9.848H37.194V13.016H38.868ZM44.7364 14.96C44.7364 13.928 44.9284 13.022 45.3124 12.242C45.7084 11.462 46.2424 10.862 46.9144 10.442C47.5864 10.022 48.3364 9.812 49.1644 9.812C49.8724 9.812 50.4904 9.956 51.0184 10.244C51.5584 10.532 51.9724 10.91 52.2604 11.378V9.956H55.3384V20H52.2604V18.578C51.9604 19.046 51.5404 19.424 51.0004 19.712C50.4724 20 49.8544 20.144 49.1464 20.144C48.3304 20.144 47.5864 19.934 46.9144 19.514C46.2424 19.082 45.7084 18.476 45.3124 17.696C44.9284 16.904 44.7364 15.992 44.7364 14.96ZM52.2604 14.978C52.2604 14.21 52.0444 13.604 51.6124 13.16C51.1924 12.716 50.6764 12.494 50.0644 12.494C49.4524 12.494 48.9304 12.716 48.4984 13.16C48.0784 13.592 47.8684 14.192 47.8684 14.96C47.8684 15.728 48.0784 16.34 48.4984 16.796C48.9304 17.24 49.4524 17.462 50.0644 17.462C50.6764 17.462 51.1924 17.24 51.6124 16.796C52.0444 16.352 52.2604 15.746 52.2604 14.978ZM60.6432 6.68V20H57.5652V6.68H60.6432ZM65.9518 6.68V20H62.8738V6.68H65.9518ZM77.6504 14.816C77.6504 15.104 77.6324 15.404 77.5964 15.716H70.6304C70.6784 16.34 70.8764 16.82 71.2244 17.156C71.5844 17.48 72.0224 17.642 72.5384 17.642C73.3064 17.642 73.8404 17.318 74.1404 16.67H77.4164C77.2484 17.33 76.9424 17.924 76.4984 18.452C76.0664 18.98 75.5204 19.394 74.8604 19.694C74.2004 19.994 73.4624 20.144 72.6464 20.144C71.6624 20.144 70.7864 19.934 70.0184 19.514C69.2504 19.094 68.6504 18.494 68.2184 17.714C67.7864 16.934 67.5704 16.022 67.5704 14.978C67.5704 13.934 67.7804 13.022 68.2004 12.242C68.6324 11.462 69.2324 10.862 70.0004 10.442C70.7684 10.022 71.6504 9.812 72.6464 9.812C73.6184 9.812 74.4824 10.016 75.2384 10.424C75.9944 10.832 76.5824 11.414 77.0024 12.17C77.4344 12.926 77.6504 13.808 77.6504 14.816ZM74.5004 14.006C74.5004 13.478 74.3204 13.058 73.9604 12.746C73.6004 12.434 73.1504 12.278 72.6104 12.278C72.0944 12.278 71.6564 12.428 71.2964 12.728C70.9484 13.028 70.7324 13.454 70.6484 14.006H74.5004ZM84.8722 17.39V20H83.3062C82.1902 20 81.3202 19.73 80.6962 19.19C80.0722 18.638 79.7602 17.744 79.7602 16.508V12.512H78.5362V9.956H79.7602V7.508H82.8382V9.956H84.8542V12.512H82.8382V16.544C82.8382 16.844 82.9102 17.06 83.0542 17.192C83.1982 17.324 83.4382 17.39 83.7742 17.39H84.8722ZM96.0547 14.816C96.0547 15.104 96.0367 15.404 96.0007 15.716H89.0347C89.0827 16.34 89.2807 16.82 89.6287 17.156C89.9887 17.48 90.4267 17.642 90.9427 17.642C91.7107 17.642 92.2447 17.318 92.5447 16.67H95.8207C95.6527 17.33 95.3467 17.924 94.9027 18.452C94.4707 18.98 93.9247 19.394 93.2647 19.694C92.6047 19.994 91.8667 20.144 91.0507 20.144C90.0667 20.144 89.1907 19.934 88.4227 19.514C87.6547 19.094 87.0547 18.494 86.6227 17.714C86.1907 16.934 85.9747 16.022 85.9747 14.978C85.9747 13.934 86.1847 13.022 86.6047 12.242C87.0367 11.462 87.6367 10.862 88.4047 10.442C89.1727 10.022 90.0547 9.812 91.0507 9.812C92.0227 9.812 92.8867 10.016 93.6427 10.424C94.3987 10.832 94.9867 11.414 95.4067 12.17C95.8387 12.926 96.0547 13.808 96.0547 14.816ZM92.9047 14.006C92.9047 13.478 92.7247 13.058 92.3647 12.746C92.0047 12.434 91.5547 12.278 91.0147 12.278C90.4987 12.278 90.0607 12.428 89.7007 12.728C89.3527 13.028 89.1367 13.454 89.0527 14.006H92.9047Z" fill="black"/>
</svg>
